<?xml version="1.0" standalone="no"?>
<!DOCTYPE svg PUBLIC "-//W3C//DTD SVG 20010904//EN"
 "http://www.w3.org/TR/2001/REC-SVG-20010904/DTD/svg10.dtd">
<svg version="1.0" xmlns="http://www.w3.org/2000/svg"
 width="225.000000pt" height="225.000000pt" viewBox="0 0 225.000000 225.000000"
 preserveAspectRatio="xMidYMid meet">

<g transform="translate(0.000000,225.000000) scale(0.100000,-0.100000)"
fill="#e5e5e5" stroke="none">
<path d="M667 1948 l-447 -273 0 -556 0 -557 452 -275 c388 -236 455 -274 473
-265 11 6 217 130 458 277 l437 266 0 552 0 552 -27 19 c-77 53 -873 532 -885
532 -8 0 -215 -123 -461 -272z m885 -39 c227 -138 419 -258 426 -267 9 -12 12
-134 12 -528 l0 -513 -43 -29 c-103 -70 -806 -492 -819 -492 -15 0 -809 480
-840 508 -17 14 -18 52 -18 532 0 454 2 519 15 530 31 26 830 509 842 510 7 0
198 -113 425 -251z"/>
<path d="M723 1768 c-4 -7 -8 -61 -8 -119 0 -85 -3 -111 -16 -125 -28 -32 -50
-115 -56 -209 -13 -213 67 -332 265 -396 65 -21 72 -26 67 -44 -4 -11 -11 -38
-17 -60 -14 -53 -31 -65 -96 -65 -72 0 -119 27 -177 102 -47 60 -91 88 -140
88 -33 0 -32 -8 8 -47 18 -17 51 -62 72 -100 76 -129 140 -168 264 -161 l61 3
0 -87 0 -88 176 0 176 0 -4 178 c-3 130 -8 188 -20 220 l-16 42 27 6 c150 32
251 105 291 209 23 59 30 154 20 246 -10 89 -24 128 -62 180 -15 20 -17 30 -8
53 13 36 13 115 -1 155 -6 17 -13 31 -15 31 -25 0 -88 -41 -125 -81 l-46 -49
-39 17 c-54 25 -311 26 -365 1 l-37 -16 -43 45 c-37 37 -104 83 -123 83 -3 0
-8 -6 -13 -12z"/>
</g>
</svg>
